PathFileType	3	(X/Y/Z)	results
DataRate	CameraRate	NumFrames	NumMarkers	Units	OrigDataRate	OrigDataStartFrame	OrigNumFrames
30.0	30.0	4	85	mm	30.0	44	173
Frame#	Time	head			nose			neck			shoulder_r			elbow_r			wrist_r			shoulder_l			elbow_l			wrist_l			hip_r			knee_r			ankle_r			hip_l			knee_l			ankle_l			heel_r			heel_l			mtoe_r			ltoe_r			mtoe_l			ltoe_l			asis_l			asis_r			psi_r			psi_l			mhnd_r			lhnd_r			mhnd_l			lhnd_l			l_lat_knee			r_med_wrist			l_lat_ankle			r_med_ankle			r_lat_knee			xiphoid			l_med_ankle			r_med_knee			l_med_elbow			navel			r_lat_elbow			r_lat_wrist			l_med_wrist			l_lat_elbow			l_med_knee			r_med_elbow			r_lat_ankle			l_lat_wrist			chin			T10			r_eye			l_eye			l_ear			r_ear			spinal_cord_8			spinal_cord_12			spinal_cord_27			spinal_cord_33			up_arm_r_0			up_arm_r_5			up_arm_l_0			up_arm_l_5			front_torso_11			front_torso_7			front_torso_4			front_torso_1			front_torso_10			thigh_r_2			thigh_r_3			thigh_l_1			thigh_l_5			shank_l_0			shank_l_4			shank_r_1			shank_r_2			foot_r_1			foot_r_3			foot_r_5			foot_r_6			foot_r_7			foot_l_1			foot_l_7			foot_l_0			foot_l_4			foot_l_5			foot_l_6			
		X1	Y1	Z1	X2	Y2	Z2	X3	Y3	Z3	X4	Y4	Z4	X5	Y5	Z5	X6	Y6	Z6	X7	Y7	Z7	X8	Y8	Z8	X9	Y9	Z9	X10	Y10	Z10	X11	Y11	Z11	X12	Y12	Z12	X13	Y13	Z13	X14	Y14	Z14	X15	Y15	Z15	X16	Y16	Z16	X17	Y17	Z17	X18	Y18	Z18	X19	Y19	Z19	X20	Y20	Z20	X21	Y21	Z21	X22	Y22	Z22	X23	Y23	Z23	X24	Y24	Z24	X25	Y25	Z25	X26	Y26	Z26	X27	Y27	Z27	X28	Y28	Z28	X29	Y29	Z29	X30	Y30	Z30	X31	Y31	Z31	X32	Y32	Z32	X33	Y33	Z33	X34	Y34	Z34	X35	Y35	Z35	X36	Y36	Z36	X37	Y37	Z37	X38	Y38	Z38	X39	Y39	Z39	X40	Y40	Z40	X41	Y41	Z41	X42	Y42	Z42	X43	Y43	Z43	X44	Y44	Z44	X45	Y45	Z45	X46	Y46	Z46	X47	Y47	Z47	X48	Y48	Z48	X49	Y49	Z49	X50	Y50	Z50	X51	Y51	Z51	X52	Y52	Z52	X53	Y53	Z53	X54	Y54	Z54	X55	Y55	Z55	X56	Y56	Z56	X57	Y57	Z57	X58	Y58	Z58	X59	Y59	Z59	X60	Y60	Z60	X61	Y61	Z61	X62	Y62	Z62	X63	Y63	Z63	X64	Y64	Z64	X65	Y65	Z65	X66	Y66	Z66	X67	Y67	Z67	X68	Y68	Z68	X69	Y69	Z69	X70	Y70	Z70	X71	Y71	Z71	X72	Y72	Z72	X73	Y73	Z73	X74	Y74	Z74	X75	Y75	Z75	X76	Y76	Z76	X77	Y77	Z77	X78	Y78	Z78	X79	Y79	Z79	X80	Y80	Z80	X81	Y81	Z81	X82	Y82	Z82	X83	Y83	Z83	X84	Y84	Z84	X85	Y85	Z85	
44	1.4666666666666666	-233.28446102874872	1626.4534786674403	-196.45285509319328	-193.64060940920666	1459.8693820966364	-284.48930540931025	-263.0127569499974	1342.3483412514852	-158.31568661114605	-32.50098307674317	1279.3199298470236	-127.18372718183835	29.887295973018055	1024.4708668582189	-83.24999436090792	44.1746785387958	808.6207130050129	-144.30831892117234	-415.5577649169353	1315.8047563094851	-219.1248166410819	-466.1564376839136	1048.671677236087	-232.00091804162076	-440.0816279894286	820.3565193011184	-310.84939896964687	-142.21830748573083	851.3226295015019	-193.61264595176482	-135.53894568813877	476.88872549213477	-149.2858080349668	-72.10463778849319	81.36765193965678	-112.36246848436726	-316.015094095302	853.0615315228556	-166.1122804669621	-326.32928901730645	473.11070222692626	-112.0581599999677	-389.63393904181413	79.70056545745213	-78.48798838254537	-74.45377306625711	24.03939468850257	-97.15136484721967	-402.4031175528406	12.71772368024773	-53.91322917916582	34.156018831672256	19.687169213866635	-297.76183980329745	62.90549542445481	30.13137056881858	-212.70639032603827	-380.01910188745	32.80946810339628	-268.5639700487583	-457.2098955233658	7.224399192284885	-221.9096958017726	-359.6673152586206	916.5455579432042	-195.8325662008816	-104.74206103661676	910.771965426476	-233.04972880911623	-168.1977777292651	907.097665057185	-79.39383719408946	-255.81768795820025	908.5849104463782	-71.59751582218144	65.75895272671946	738.8192512051155	-137.70810583061134	42.043568582663966	731.9876799018707	-185.2470629413326	-459.967957116713	747.7810746007542	-323.1764237986911	-411.78745473132665	744.4736144903966	-346.0553927706009	-374.85285641789255	469.7917242830855	-99.85578218327414	64.11366928687873	813.4875161701297	-124.85367229393064	-443.82265325639645	74.03663342142208	-62.87082241398107	-98.9633130898486	64.84335928695361	-136.46241198795025	-98.45094080105204	470.3130370321468	-129.081826207312	-221.70458320501598	1175.2012002664742	-252.13615589116338	-364.2415112429547	62.039631230090485	-97.18824172241882	-165.85286656536792	467.57504111146045	-175.7852497939917	-465.95650405614913	1056.0728955998613	-195.31286729513138	-191.69012318421278	956.1546555157262	-266.8953619234665	55.614564596502106	1032.4428010874747	-113.72837927171075	17.41754535886781	817.9648954712869	-157.31899247221565	-473.1789880668705	826.9690116464645	-309.03100548940074	-475.36386442923487	1063.8009368643638	-269.4468659019178	-292.73060959751626	465.6134579490206	-147.376046251157	3.868231880432005	1029.0844511962218	-56.650876695963994	-22.806239561403874	71.46155916880004	-97.44382463275055	-411.8383970782444	834.5634875042081	-318.5268372933244	-201.84987549514415	1393.1217872881018	-262.44162147653094	-257.1618185810884	1182.1876765172003	-57.79681563412777	-165.9084942447781	1488.8054177495583	-274.4982933871539	-223.10232661228247	1487.5281886677446	-299.6795708906947	-303.75850074708785	1490.068635416756	-234.38005269494872	-162.89368380465123	1490.6316238381478	-169.55935101492574	-279.7814099050505	1400.4442671391803	-109.88313390010427	-273.35707241434466	1281.9625355759003	-58.48511753365953	-221.42423938902806	1032.618150483216	-71.14498346522778	-253.6883526952617	1172.8231560914487	-70.73599621533388	-22.78080112454169	1141.3469406416725	-145.71580811786612	36.64378988347551	1138.8765670819048	-78.35399988713635	-436.8089304277426	1265.373122081777	-249.76380112447865	-465.96447018863057	1123.7731463545952	-187.41901748519427	-153.78329717342706	989.8001983458059	-219.06466267146456	-203.33166496471844	1089.075829524325	-282.19109701348447	-291.98842819175854	1211.6398055981158	-269.53825902268227	-276.123827536551	1007.2199799739028	-244.37659730943423	-150.86114302162656	1273.0075975990533	-251.6841999793129	-151.48310161775007	646.0809095155255	-181.21507210085713	-73.66904071773172	618.9653345997724	-125.76027701982807	-280.62231139746075	577.675622984825	-144.75124834131404	-418.5769075966305	753.9056750618527	-137.32504020296295	-443.4910474085482	186.24846709227583	-82.97210768350114	-303.62831956274465	312.2694281156324	-113.43124651030097	-52.90689288927219	318.2729505756251	-111.54894634652884	-138.99616555183584	262.82754652382624	-149.0088882809075	47.0102991803278	17.836821136676406	-269.9205876096936	59.30683203489603	25.121987413023465	-243.7459965560665	-18.790570548504416	25.824376160006686	-231.25802358168974	5.032442299197318	41.07165081834566	-202.53274271147072	28.902349192394926	35.0904373576296	-175.73450276757367	-426.9090524349065	13.617987310095124	-248.33326073966384	-453.4356202562251	31.09341416174384	-147.03319716737343	-441.4826069211637	11.389579533129409	-241.8377283036817	-409.03956491160073	16.269034064582367	-255.7009460197881	-420.6027373764739	25.333778820328472	-199.28996124097804	-394.5741847987428	37.16826547046002	-167.97018384930857	
45	1.5	-233.45536841892522	1627.1190419423863	-197.57842731421727	-193.38086620623196	1460.1286217648953	-284.6447619514079	-259.2293722672492	1341.7411040961058	-155.83916646922236	-29.161935778880675	1279.2092330271817	-122.37985141670464	36.255409809099376	1025.776729154455	-74.80830502953489	64.45113602133925	808.4010349674664	-124.57120101870927	-417.3180487333171	1314.6652975015213	-215.28735822510214	-468.0655660507151	1047.8214173727408	-232.75546436826028	-446.0350314442729	815.6182803480998	-300.73449561320047	-146.75368792526106	849.8062730389855	-193.61723828640575	-136.4604717129545	475.3499291949246	-150.03662962957023	-72.8571414474226	79.71957639661498	-114.60494366630522	-320.71439295094365	854.6911601900265	-167.5705897046886	-323.9571081379914	475.02234759889507	-111.18100412215674	-385.7138294291025	81.22482092068795	-79.3127407928846	-74.89827012052422	21.785560932538104	-99.93076155711005	-397.03068627656904	14.421184227648661	-54.461884366136886	31.85564832927519	24.505287179664528	-301.56358480161794	61.31799459135842	32.56249640045257	-216.49246887860983	-384.7596349654261	33.246180665889014	-270.0418085612206	-459.3203966274127	6.778945015922244	-219.74455280829352	-362.7299819418581	919.7370665917969	-196.25427407848028	-107.66130936771906	909.2821826713699	-231.41112940980062	-172.56338508314585	903.616008560952	-78.42133716544947	-260.19819261159785	906.8217980146234	-71.34273435569202	89.96345348982831	740.4278837641392	-114.0611987665942	67.66427313335141	729.8396580014361	-161.59727228317502	-468.98451404269616	744.3323249208921	-315.0959233989398	-417.82325151467415	736.679492733949	-328.50139615318267	-371.72159864738154	471.1980816498022	-96.30436586520577	83.66895055225021	815.410406180817	-105.04489260313993	-438.98007204968246	75.37150291526629	-60.85092038857304	-99.81530849690608	63.26870045022898	-138.64395099648578	-97.64592083684701	468.7388309653696	-133.4163210165862	-222.41366394579708	1173.9743644611524	-250.4210733361225	-361.3905847904811	63.801870301984195	-99.59090698874462	-169.16394148647345	466.0963458040764	-173.54007941044594	-474.96486399725273	1056.003191934	-196.89058841455866	-196.68927361545641	954.4276438721259	-265.83483215809935	62.244261707778435	1033.7738046428417	-105.05731151856043	37.46149626982545	815.4722608759233	-138.5029151436229	-478.269776069621	824.7217894035304	-305.2637577803077	-469.5403186941356	1062.2350877543317	-271.561925506812	-292.3592524921361	467.60505651935347	-148.34670451955014	9.845901556174	1030.3158227542854	-48.5838046456926	-23.496634974696963	69.7698584768628	-99.92256680878455	-415.8253086127139	827.4218958138406	-303.28565327537194	-201.59695271788496	1393.4858556998445	-262.2847198489052	-254.8743148333154	1181.373847636491	-55.574058077606	-165.70714046959745	1489.1411722438886	-274.7139256027128	-222.8206233147644	1487.6821774478424	-300.06710929233816	-303.6832172061921	1490.477060894799	-235.03381852512302	-163.02266080118827	1491.5019532718816	-169.77667759840543	-274.20327106569954	1400.0772882336653	-107.10818593500854	-269.22370194765233	1281.4325981534323	-55.926252403761424	-222.118433075768	1031.184278609782	-69.5932176402794	-251.76581309348995	1171.9627361518283	-68.57212715474729	-17.272415597038535	1141.1906363830333	-139.23132023959292	41.340453727045954	1140.3142561330108	-71.12286645180163	-432.8355406309482	1263.798553849386	-248.53628259949073	-475.5929374976282	1123.8536545901682	-190.4441070830853	-157.46557237824004	987.3047449261705	-218.53448026708367	-206.08589936287714	1087.5608380707406	-280.8274814847651	-292.2574772829775	1211.731503184114	-266.750930408729	-279.820682507979	1007.0213632304527	-242.02554632208822	-149.76851537366903	1270.449882888814	-250.91642511969215	-155.10823332479612	644.579969386213	-180.3482620377853	-72.44168149516635	617.3543313790743	-132.48885734084095	-281.29646824770936	579.7970877176344	-146.9352434871055	-420.4534348746084	754.6494427271929	-132.59498471421605	-439.6352800193345	187.83437605819802	-79.48798331848897	-301.5145922856651	314.207124208122	-115.86419176307557	-53.66562351517376	316.6222252688552	-113.13649344450519	-139.90797027697545	261.28873881217515	-150.40935018139962	44.98488505906364	21.904629005474888	-273.911254792184	57.46817981788849	28.48156098963192	-247.63771482547628	-20.511730947463057	28.15623797982621	-234.42125572322507	3.457830500912251	42.707603581397244	-205.45791734824607	27.62490243048965	36.10097034014925	-179.07614210074755	-430.36084147618965	13.458084932610634	-247.56463728579214	-452.53765216319	31.270878938084902	-145.28245085409765	-444.5855982906222	11.045229890397634	-240.39660705937948	-412.89057026384273	16.339818637655075	-255.75699068681618	-422.02431998812796	25.644037722375383	-198.9407792515928	-394.7962313566298	38.13121345365005	-168.92127374002365	
46	1.5333333333333332	-233.20892181760306	1627.3741450478526	-198.247187389832	-192.63053943537986	1460.468556446498	-285.2427744197653	-255.94874873914992	1340.705926761129	-151.6541345526109	-23.22652746135929	1275.4821456628106	-122.3941070146648	42.9916644803606	1025.2574123263441	-60.967329211273935	76.93166528751848	809.2701999493306	-113.1318540529438	-418.36748496871326	1315.6722745153488	-213.1581188659478	-474.1937285545499	1050.3340953347827	-236.9316925251134	-449.33215654253644	817.2890474365466	-300.9371444439217	-148.65843297373092	849.3896857450093	-194.52634487979586	-137.05485292486813	475.0540529450727	-150.544561153555	-72.51941644008978	79.28204710159409	-118.54673505975197	-322.4732244116335	854.3124868927029	-167.5300261657733	-320.44117916266157	475.58218109070236	-105.7540494223561	-384.9992103856111	81.87576393651929	-78.67105574813306	-74.10075243160667	20.767343537217585	-104.6514414212542	-396.169826767676	15.447047404614361	-53.99406134971349	28.666893140148364	30.33390248457694	-308.13825524058154	59.83869438846776	35.20217331327663	-223.43487881346363	-387.60296615247233	32.09354925078387	-269.9319361716715	-461.21917673873503	5.921805263930578	-218.1117756697256	-364.40242113079034	920.083016079791	-194.64484425613256	-109.54437655111113	909.5099762136801	-231.26348355802617	-173.72482174868625	900.87031751568	-78.1083718443997	-261.31278293965033	904.2211183770709	-70.5344440453066	100.18600711630404	740.7239110477684	-101.20165546296327	85.12403572464122	731.8893610827989	-151.83889471886684	-472.00734000089216	746.5451949452032	-318.1348242456605	-419.72721519055136	737.5050981737829	-324.52329228471245	-367.91473010526016	471.3470257334173	-89.94087678966338	93.08135098098327	815.4478636386164	-90.75426428471023	-437.9946414095544	76.18721775572884	-59.39626702909362	-99.532217659782	62.97051414678195	-142.6193424470124	-97.35905233459788	468.32279609409863	-136.17809902023092	-222.4377362713164	1173.05242468193	-247.65479964141164	-361.1701980772559	64.55744672672643	-99.6147307768424	-171.06568423216754	465.80780436261705	-172.13269850379666	-485.5891099527788	1058.9008021536301	-202.3255096762412	-199.6457544484079	953.2982544289911	-264.646590639196	73.08168915755451	1033.9019723474821	-86.93342306303266	52.35212053215218	817.0731044507738	-130.6674238806837	-480.4150753809225	827.1975812728809	-309.77682586706305	-470.03050950419475	1064.5817428373703	-275.60393532414327	-289.56705506227934	467.855219802717	-143.50528601975108	12.6659796003118	1029.0788628579646	-39.25237423453376	-23.08526213537032	69.3156248186797	-104.12579572943444	-418.7541440189022	828.2957832483562	-299.42122428987483	-201.30236848345567	1393.798561529106	-263.1374585914479	-252.30413544166785	1179.7138644967933	-52.36673297412597	-164.98689500458397	1489.374452109679	-274.9246926930014	-221.80830091191686	1488.146534093449	-300.9378155308977	-303.40679462819026	1491.0319996949852	-236.83431107253904	-163.50570332804412	1491.4812074769184	-169.95815807405873	-269.57015456443213	1398.9370076749467	-102.40339843897713	-265.4111937548313	1279.9427339745587	-51.96517102826917	-221.60123105121704	1029.2152712172426	-67.6604032940314	-249.4797622096459	1170.3411607688126	-65.45707074101034	-3.917913886938577	1137.8374185853377	-134.86696798819474	43.33484430517668	1139.939100064266	-58.4617473006845	-430.790746929708	1265.1066827676484	-248.12228094760374	-485.0664341998297	1126.7734722384942	-196.107443566632	-159.41320390446762	985.4108868129581	-217.66950559148742	-207.5770767034522	1086.6227977481126	-278.75983912527494	-292.0100519121429	1211.7650243480039	-262.8683311677577	-281.8046073567759	1006.7757610606056	-239.4693841685436	-148.6105368591007	1268.6236207136762	-248.53783777904215	-156.8723949081683	644.226675745784	-180.23054032402817	-71.68465824927696	616.8577773642994	-137.108507689169	-279.6896156598226	580.1660841314206	-143.8730175402762	-420.4130032943248	753.730838066352	-129.1810197510609	-438.007269543642	188.91746943013854	-76.3537858822388	-299.4493478834363	314.67508062067316	-113.19601665949419	-53.80327194371851	316.20409380683174	-115.23230155253127	-140.0694318022922	260.99622147580754	-152.63609071485863	42.32672751290548	26.686091101990307	-280.86383440305764	55.356336571976584	32.2620945076565	-254.62407338032932	-22.348390646914137	31.768306450434928	-239.8803068864274	2.2553506704912074	45.171166614124445	-210.89451141105116	26.90701950887911	37.52225153577595	-185.25309266617816	-432.755107566013	12.401297759820284	-246.48494588464504	-453.2565171953157	31.19732801275219	-144.0293278165332	-446.8490141842889	10.019732873247335	-239.0528413282219	-415.43495638127627	15.25088327748859	-255.00091000753656	-423.63665157500463	25.110817583899145	-198.13624918838806	-395.94475201850173	37.98686934714701	-168.71117366817404	
47	1.5666666666666667	-232.45367434748113	1628.0531046608198	-199.5793745718466	-191.50925970060274	1460.7966201326788	-285.7253906046119	-253.56495934363687	1339.924205442243	-149.27635420999695	-22.21690447106052	1266.8121210745578	-124.42082561886365	53.97794122469686	1023.6482700630503	-48.02578520852996	74.54645309582564	809.3930504794854	-112.79595131720853	-418.6205840854913	1317.563499188605	-211.85037463193152	-480.62776013105236	1054.209169668926	-241.61123568107377	-450.31407315411764	822.8898166119395	-309.41409160390475	-147.25466774563117	849.2931660189792	-194.24400240720513	-137.12811082213886	475.09745109559657	-149.29175812684943	-72.02066949489652	79.13630803278882	-121.00822378979795	-320.82201088820574	853.731773685918	-165.62070640102894	-317.1073427528858	475.8270513221257	-99.49041202577051	-385.6575243469427	82.52640191064492	-76.6552937634475	-73.45792606093669	20.151945637587755	-108.05227319923861	-397.2526876794375	16.591718025100903	-52.10005693731175	30.390008775120812	35.90985691126426	-310.6032200925416	61.1009649251352	38.26898356134281	-225.62489976387712	-389.2710153830759	30.22295550373214	-268.27162116187185	-462.86759832991464	5.174736895117226	-215.8715696168025	-363.0819233003113	919.6879259483894	-191.75342896848227	-108.55530236502008	909.7980760835964	-230.78837367479326	-171.32385030648894	899.6807414901227	-77.13938922571364	-258.84328435359106	902.8422309594398	-68.73719649293584	93.95202107319825	739.0618080161436	-105.13905641777245	77.66216917894893	733.9986848430638	-155.9135358709788	-471.3386431791505	751.9719403815602	-327.9408043988201	-418.8388427814381	744.1857272099846	-334.1772429942514	-364.61812597320335	471.47084254515363	-83.73034183709517	91.35377730078471	813.3539087594435	-90.40046393143238	-438.77592926616035	77.16892901467476	-57.62570390357099	-98.63665519164088	63.04303952747647	-145.66271582874154	-97.42729561066042	468.17409251837023	-134.9683460445228	-222.41673420290593	1172.1652685656582	-245.88659995107616	-361.92567520029604	65.18614318555349	-97.69093555795027	-171.1630207357835	465.8600134846679	-170.8767555277476	-491.7818154039274	1062.240964465882	-206.79876093982617	-200.53632779755145	952.3495389583828	-263.2757797202232	83.78639674838767	1031.956378576896	-74.42289386015793	50.20745006347538	819.5735855179252	-129.4243964022304	-481.5581488121508	832.267012936035	-318.2652372549815	-476.17805318699345	1069.2408763663784	-279.9533550434683	-286.18568825888724	467.72766872389093	-137.15354085587578	23.438719260160493	1027.509339100488	-26.619291218611423	-22.775744780027473	69.12268116600195	-105.98513013660751	-419.9934579261333	834.5339438657276	-307.5337486208126	-200.1996310696881	1394.2179977410221	-263.35357094034737	-248.34635689024304	1178.9434085778814	-50.04095397516209	-163.9153921916861	1489.7666150919276	-275.4539466949856	-220.66027759700202	1488.3853426368566	-301.6259274847993	-302.4462596457079	1491.4945966951743	-237.77230541153887	-162.74001602346115	1492.3337872471143	-170.49379304199908	-266.0465260205685	1398.2002507401558	-99.77736910415547	-261.18435415300314	1279.2058666061132	-49.402328239426346	-218.34410793948317	1028.362941518112	-65.9085078806963	-245.80904435375817	1169.5607887741505	-63.18287517749099	2.770017281575443	1129.5799922255221	-128.59961302104355	49.606125760980376	1138.1912184751654	-52.39447083830502	-432.25561437116266	1268.1164799963644	-247.9445206770997	-489.6741943352299	1129.9224553460513	-199.0263349219535	-159.28781478534793	984.3677077523874	-217.12252584967933	-208.4052141336103	1085.6912520438095	-277.2611894771608	-292.1799407532281	1211.0542933046802	-259.71276300162674	-282.03602856843963	1006.0441118803147	-236.47085171423643	-148.37596827632242	1267.5453382565274	-248.273214103355	-156.2702667310239	644.2006275571456	-179.4294989489303	-71.16750943554008	616.6037761785351	-136.2849596775998	-276.8198882162978	580.0710625171564	-138.7884544481992	-418.3520723986375	753.1464675180005	-126.25069311564627	-437.6112256464855	190.06044133613076	-73.43130920527236	-297.6828892360886	314.8033496020938	-108.50112389765773	-53.98064377723383	316.04831481165826	-114.63686087463545	-139.54650220238258	261.0723599931406	-153.94247385195976	43.907319229994776	31.45997514329481	-283.3769000085844	56.78949563941668	36.26014416142957	-256.9119138363606	-20.992672730177784	35.249221441081076	-242.60948648251878	3.4398278189738116	47.801748124111974	-213.10280795868178	27.962119712886093	39.412185738899446	-187.5691933125404	-434.45731021277356	11.105710544555736	-244.41807422926408	-454.5335934046331	31.420758588905223	-142.1684096824674	-448.54076797294	8.904772585386524	-236.9108561806964	-417.1484898842744	13.74181039721051	-253.02534650505405	-425.1174503400976	24.42724195966448	-196.27684009094654	-397.2629111497685	37.55220597541897	-167.11643807884874	
